<?xml version="1.0" encoding="UTF-8" standalone="no"?>
<svg
   xmlns:dc="http://purl.org/dc/elements/1.1/"
   xmlns:cc="http://creativecommons.org/ns#"
   xmlns:rdf="http://www.w3.org/1999/02/22-rdf-syntax-ns#"
   xmlns:svg="http://www.w3.org/2000/svg"
   xmlns="http://www.w3.org/2000/svg"
   xmlns:sodipodi="http://sodipodi.sourceforge.net/DTD/sodipodi-0.dtd"
   xmlns:inkscape="http://www.inkscape.org/namespaces/inkscape"
   width="51.993mm"
   height="40.658mm"
   viewBox="0 0 51.993 40.658"
   version="1.1"
   id="svg405"
   inkscape:version="1.0.1 (1.0.1+r73)"
   sodipodi:docname="logo.svg">
  <defs
     id="defs399">
    <clipPath
       clipPathUnits="userSpaceOnUse"
       id="clipPath282">
      <path
         d="m 0,1996 h 1366 v 613 H 0 Z"
         id="path280" />
    </clipPath>
    <clipPath
       clipPathUnits="userSpaceOnUse"
       id="clipPath364">
      <path
         d="M 0,2609 H 1366 V 0 H 0 Z"
         id="path362" />
    </clipPath>
  </defs>
  <sodipodi:namedview
     id="base"
     pagecolor="#ffffff"
     bordercolor="#666666"
     borderopacity="1.0"
     inkscape:pageopacity="0.0"
     inkscape:pageshadow="2"
     inkscape:zoom="0.35"
     inkscape:cx="945.37441"
     inkscape:cy="530.92712"
     inkscape:document-units="mm"
     inkscape:current-layer="layer1"
     inkscape:document-rotation="0"
     showgrid="false"
     inkscape:window-width="1366"
     inkscape:window-height="704"
     inkscape:window-x="0"
     inkscape:window-y="27"
     inkscape:window-maximized="1" />
  <metadata
     id="metadata402">
    <rdf:RDF>
      <cc:Work
         rdf:about="">
        <dc:format>image/svg+xml</dc:format>
        <dc:type
           rdf:resource="http://purl.org/dc/dcmitype/StillImage" />
        <dc:title></dc:title>
      </cc:Work>
    </rdf:RDF>
  </metadata>
  <g
     inkscape:label="Layer 1"
     inkscape:groupmode="layer"
     id="layer1">
    <g
       id="g554">
      <g
         id="g350"
         transform="matrix(0.35277953,0,0,-0.35277928,17.509998,28.664022)">
        <path
           d="M 0,0 H 71.696 L 35.848,62.091 Z M 88.291,-9.581 H -16.594 l 52.442,90.833 z"
           style="fill:#ffffff;fill-opacity:1;fill-rule:nonzero;stroke:none"
           id="path352" />
      </g>
      <g
         id="g354"
         transform="matrix(0.35277953,0,0,-0.35277928,9.1902266,28.664022)">
        <path
           d="m 0,0 h 12.521 l 17.354,30.059 -6.26,10.843 z M 18.052,-9.581 H -16.594 L 23.615,60.063 40.938,30.059 Z"
           style="fill:#ffffff;fill-opacity:1;fill-rule:nonzero;stroke:none"
           id="path356" />
      </g>
      <g
         id="g358"
         transform="matrix(0.35277953,0,0,-0.35277928,-214.95174,894.38383)">
        <g
           id="g360"
           clip-path="url(#clipPath364)">
          <g
             id="g366"
             transform="translate(710.4844,2489.2349)">
            <path
               d="m 0,0 c -4.236,4.236 -8.317,4.097 -13.967,3.905 -1.174,-0.04 -2.387,-0.082 -3.641,-0.082 -9.073,0 -12.828,8.695 -13.546,13.292 l 9.461,1.511 c 0.008,-0.052 0.931,-5.222 4.085,-5.222 1.09,0 2.171,0.037 3.315,0.076 6.51,0.223 13.889,0.474 21.067,-6.706 z"
               style="fill:#ffffff;fill-opacity:1;fill-rule:nonzero;stroke:none"
               id="path368" />
          </g>
          <path
             d="m 610.342,2422.912 h 9.131 v -2.755 h -9.131 z m 0,6.157 h 7.983 v -2.755 h -7.983 z m 0,6.261 h 9.131 v -2.755 h -9.131 z m -1.033,0 h 2.859 v -15.173 h -2.859 z"
             style="fill:#ffffff;fill-opacity:1;fill-rule:nonzero;stroke:none"
             id="path370" />
          <g
             id="g372"
             transform="translate(630.0405,2420)">
            <path
               d="M 0,0 C 0,0 -0.346,0.073 -1.038,0.219 -1.73,0.365 -2.381,0.579 -2.99,0.861 -3.598,1.143 -4.143,1.482 -4.623,1.878 l 1.326,2.359 c 0.584,-0.48 1.258,-0.85 2.024,-1.112 0.766,-0.26 1.551,-0.391 2.358,-0.391 0.933,0 1.656,0.159 2.171,0.475 0.515,0.316 0.772,0.763 0.772,1.341 v 0.011 c 0,0.403 -0.114,0.723 -0.344,0.96 C 3.455,5.757 3.155,5.931 2.787,6.042 2.417,6.153 1.945,6.254 1.367,6.345 1.346,6.352 1.327,6.355 1.31,6.355 1.292,6.355 1.273,6.359 1.252,6.366 L 1.023,6.397 c -1.016,0.16 -1.857,0.36 -2.525,0.601 -0.668,0.239 -1.236,0.66 -1.702,1.262 -0.465,0.602 -0.699,1.456 -0.699,2.562 v 0.01 c 0,0.981 0.219,1.82 0.658,2.515 0.438,0.696 1.075,1.227 1.91,1.591 0.835,0.366 1.843,0.549 3.026,0.549 0.542,0 1.097,-0.063 1.664,-0.188 C 3.922,15.173 4.477,14.993 5.02,14.756 5.562,14.52 6.077,14.234 6.564,13.9 l -1.21,-2.421 c -0.584,0.404 -1.195,0.717 -1.832,0.939 -0.636,0.223 -1.247,0.334 -1.831,0.334 -0.877,0 -1.555,-0.144 -2.035,-0.433 -0.48,-0.288 -0.72,-0.694 -0.72,-1.215 v -0.011 c 0,-0.438 0.125,-0.784 0.376,-1.038 0.25,-0.254 0.56,-0.44 0.928,-0.558 C 0.609,9.378 1.127,9.253 1.795,9.121 1.823,9.114 1.851,9.108 1.878,9.105 1.906,9.102 1.935,9.096 1.962,9.089 2.004,9.083 2.044,9.074 2.082,9.063 2.121,9.053 2.16,9.044 2.202,9.037 3.162,8.85 3.964,8.622 4.607,8.354 5.251,8.086 5.789,7.654 6.22,7.06 6.651,6.465 6.867,5.652 6.867,4.623 V 4.602 C 6.867,3.635 6.641,2.807 6.188,2.119 5.736,1.43 5.077,0.904 4.211,0.542 3.345,0.181 2.303,0 1.085,0 Z"
               style="fill:#ffffff;fill-opacity:1;fill-rule:nonzero;stroke:none"
               id="path374" />
          </g>
          <g
             id="g376"
             transform="translate(646.8174,2420)">
            <path
               d="M 0,0 C 0,0 -0.411,0.221 -1.231,0.663 -2.052,1.104 -2.678,1.748 -3.11,2.593 -3.542,3.438 -3.757,4.459 -3.757,5.656 V 9.82 c 0,1.197 0.215,2.218 0.647,3.063 0.432,0.845 1.058,1.491 1.879,1.936 0.82,0.445 1.809,0.668 2.963,0.668 0.954,0 1.806,-0.206 2.557,-0.616 0.752,-0.411 1.372,-1.007 1.863,-1.79 0.49,-0.782 0.829,-1.727 1.017,-2.833 H 4.206 c -0.112,0.501 -0.284,0.929 -0.517,1.283 -0.233,0.355 -0.515,0.627 -0.845,0.814 -0.331,0.188 -0.701,0.282 -1.112,0.282 -0.536,0 -0.991,-0.109 -1.367,-0.328 -0.375,-0.22 -0.662,-0.54 -0.861,-0.961 C -0.694,10.917 -0.793,10.411 -0.793,9.82 V 5.656 c 0,-0.591 0.099,-1.095 0.297,-1.513 C -0.297,3.726 -0.01,3.407 0.365,3.188 0.741,2.969 1.196,2.859 1.732,2.859 2.15,2.859 2.525,2.952 2.859,3.136 3.193,3.32 3.475,3.59 3.705,3.945 3.934,4.299 4.101,4.731 4.206,5.239 H 7.169 C 6.975,4.132 6.632,3.188 6.141,2.406 5.651,1.623 5.032,1.026 4.284,0.616 3.536,0.205 2.686,0 1.732,0 Z"
               style="fill:#ffffff;fill-opacity:1;fill-rule:nonzero;stroke:none"
               id="path378" />
          </g>
          <path
             d="m 661.569,2425.343 h 7.983 v -2.755 h -7.983 z m 3.016,9.987 h 1.816 l 5.802,-15.173 h -3.078 l -3.632,10.362 -3.632,-10.362 h -3.078 z"
             style="fill:#ffffff;fill-opacity:1;fill-rule:nonzero;stroke:none"
             id="path380" />
          <path
             d="m 679.629,2422.912 h 8.891 v -2.755 h -8.891 z m -1.273,12.418 h 2.859 v -15.173 h -2.859 z"
             style="fill:#ffffff;fill-opacity:1;fill-rule:nonzero;stroke:none"
             id="path382" />
          <path
             d="m 696.416,2425.343 h 7.983 v -2.755 h -7.983 z m 3.016,9.987 h 1.816 l 5.802,-15.173 h -3.078 l -3.632,10.362 -3.632,-10.362 h -3.078 z"
             style="fill:#ffffff;fill-opacity:1;fill-rule:nonzero;stroke:none"
             id="path384" />
          <path
             d="m 714.831,2434.088 h 2.859 v -13.932 h -2.859 z m -4.133,1.242 h 11.125 v -2.755 h -11.125 z"
             style="fill:#ffffff;fill-opacity:1;fill-rule:nonzero;stroke:none"
             id="path386" />
          <g
             id="g388"
             transform="translate(733.9346,2423.188)">
            <path
               d="m 0,0 c 0.39,0.219 0.69,0.531 0.903,0.934 0.212,0.403 0.318,0.87 0.318,1.399 V 6.778 C 1.221,7.307 1.115,7.773 0.903,8.176 0.69,8.58 0.39,8.891 0,9.111 -0.39,9.33 -0.842,9.439 -1.356,9.439 -1.871,9.439 -2.323,9.33 -2.713,9.111 -3.103,8.891 -3.403,8.58 -3.616,8.176 -3.828,7.773 -3.934,7.307 -3.934,6.778 V 2.333 c 0,-0.529 0.106,-0.996 0.318,-1.399 0.213,-0.403 0.513,-0.715 0.903,-0.934 0.39,-0.219 0.842,-0.329 1.357,-0.329 0.514,0 0.966,0.11 1.356,0.329 m -4.263,-2.494 c -0.839,0.463 -1.487,1.117 -1.946,1.962 -0.459,0.845 -0.688,1.824 -0.688,2.938 v 4.299 c 0,1.113 0.229,2.093 0.688,2.938 0.459,0.845 1.107,1.499 1.946,1.961 0.838,0.463 1.807,0.695 2.907,0.695 1.099,0 2.068,-0.232 2.906,-0.695 C 2.388,11.142 3.037,10.488 3.496,9.643 3.955,8.798 4.185,7.818 4.185,6.705 V 2.406 C 4.185,1.292 3.955,0.313 3.496,-0.532 3.037,-1.377 2.388,-2.031 1.55,-2.494 0.712,-2.957 -0.257,-3.188 -1.356,-3.188 c -1.1,0 -2.069,0.231 -2.907,0.694"
               style="fill:#ffffff;fill-opacity:1;fill-rule:nonzero;stroke:none"
               id="path390" />
          </g>
          <g
             id="g392"
             transform="translate(749.542,2426.731)">
            <path
               d="m 0,0 3.058,0.48 4.09,-7.054 H 3.685 Z m -3.193,2.286 h 5.281 c 0.292,0 0.549,0.072 0.771,0.219 0.223,0.146 0.396,0.354 0.517,0.626 0.122,0.271 0.187,0.584 0.193,0.939 0,0.355 -0.06,0.668 -0.182,0.939 C 3.265,5.281 3.093,5.489 2.87,5.635 2.647,5.781 2.387,5.854 2.088,5.854 h -5.281 v 2.755 h 5.51 C 3.152,8.609 3.886,8.422 4.519,8.046 5.152,7.67 5.643,7.14 5.99,6.455 6.338,5.769 6.512,4.974 6.512,4.07 6.512,3.166 6.338,2.371 5.99,1.686 5.643,1 5.15,0.47 4.514,0.094 3.877,-0.282 3.146,-0.47 2.317,-0.47 h -5.51 z M -4.33,8.609 h 2.859 V -6.575 H -4.33 Z"
               style="fill:#ffffff;fill-opacity:1;fill-rule:nonzero;stroke:none"
               id="path394" />
          </g>
        </g>
      </g>
    </g>
  </g>
</svg>
